<?xml version="1.0" encoding="UTF-8" standalone="no"?>
<!-- Generator: Adobe Illustrator 22.0.1, SVG Export Plug-In . SVG Version: 6.00 Build 0)  -->

<svg
   xmlns:dc="http://purl.org/dc/elements/1.1/"
   xmlns:cc="http://creativecommons.org/ns#"
   xmlns:rdf="http://www.w3.org/1999/02/22-rdf-syntax-ns#"
   xmlns:svg="http://www.w3.org/2000/svg"
   xmlns="http://www.w3.org/2000/svg"
   xmlns:sodipodi="http://sodipodi.sourceforge.net/DTD/sodipodi-0.dtd"
   xmlns:inkscape="http://www.inkscape.org/namespaces/inkscape"
   version="1.1"
   id="art"
   x="0px"
   y="0px"
   viewBox="0 0 136 140"
   xml:space="preserve"
   sodipodi:docname="apicurio_logo.svg"
   width="136"
   height="140"
   inkscape:version="0.92.4 (5da689c313, 2019-01-14)"><metadata
   id="metadata37"><rdf:RDF><cc:Work
       rdf:about=""><dc:format>image/svg+xml</dc:format><dc:type
         rdf:resource="http://purl.org/dc/dcmitype/StillImage" /><dc:title></dc:title></cc:Work></rdf:RDF></metadata><defs
   id="defs35">
	
	
	
</defs><sodipodi:namedview
   pagecolor="#ffffff"
   bordercolor="#666666"
   borderopacity="1"
   objecttolerance="10"
   gridtolerance="10"
   guidetolerance="10"
   inkscape:pageopacity="0"
   inkscape:pageshadow="2"
   inkscape:window-width="3840"
   inkscape:window-height="2042"
   id="namedview33"
   showgrid="false"
   inkscape:zoom="1.46"
   inkscape:cx="-323.89281"
   inkscape:cy="-14.300566"
   inkscape:window-x="0"
   inkscape:window-y="70"
   inkscape:window-maximized="1"
   inkscape:current-layer="art" />
<style
   type="text/css"
   id="style2">
	.st0{fill:#FFFFFF;}
	.st1{fill:#AFB1B2;}
	.st2{fill:#CC0000;}
</style>
<g
   id="g861"><path
     class="st1"
     d="m 61.8,82.1 c -0.1,0 -0.1,0 -0.2,0 v 0 c -7,-0.5 -13,-7.8 -13,-13.2 0.1,-4.2 0.4,-9.2 0.6,-10 C 53.1,37.2 69.3,19.9 90.4,14.4 82.9,10.5 74.3,8.3 65.3,8.3 35,8.3 10.3,33 10.3,63.3 v 49 c 0,10.6 8.6,19.2 19.2,19.2 10.6,0 19.2,-8.6 19.2,-19.2 v -10.2 c 0,-7.4 5.7,-13.5 13,-14 v 0 c 0.1,0 0.1,0 0.2,0 1.7,0 3,-1.4 3,-3 0,-1.6 -1.4,-3 -3.1,-3 z"
     id="path22"
     inkscape:connector-curvature="0"
     style="fill:#afb1b2" /><g
     id="g28">
		<path
   class="st2"
   d="m 108.3,35 c 2.9,0 5.8,0.2 8.6,0.6 -3.5,-5.9 -8.1,-11.2 -13.4,-15.4 -19.7,1.9 -36.4,13.8 -44.9,30.6 2.9,-2.5 6.7,-4.1 10.9,-4.1 1.2,0 2.4,0.1 3.5,0.4 C 82.7,39.5 95,35 108.3,35 Z"
   id="path24"
   inkscape:connector-curvature="0"
   style="fill:#cc0000" />
		<path
   class="st2"
   d="m 121.7,46.2 c -4.9,-1.4 -10.1,-2.1 -15.4,-2.1 -9.5,0 -18.4,2.3 -26.3,6.4 3.8,3.1 6.2,7.7 6.2,13 V 69 c 0,5.4 -6,12.7 -13,13.2 v 0 c -0.1,0 -0.1,0 -0.2,0 -1.7,0 -3,1.4 -3,3 0,1.6 1.4,3 3,3 0.1,0 0.1,0 0.2,0 v 0 c 7,0.5 12.6,6.1 13,13.2 v 11 c 0,10.6 8.6,19.2 19.2,19.2 10.6,0 19.2,-8.6 19.2,-19.2 v -49 c -0.1,-6 -1.1,-11.8 -2.9,-17.2 z"
   id="path26"
   inkscape:connector-curvature="0"
   style="fill:#cc0000" />
	</g></g>
</svg>